<svg width="1080" height="1920" viewBox="0 0 1080 1920" fill="none" xmlns="http://www.w3.org/2000/svg">
	<rect width="1080" height="1920" fill="#E9F0F5"/>
	<path d="M58.5 898V718H144C157.333 718 168.75 720.333 178.25 725C187.917 729.667 195.333 736.167 200.5 744.5C205.833 752.833 208.5 762.583 208.5 773.75C208.5 784.917 205.833 794.75 200.5 803.25C195.167 811.75 187.667 818.417 178 823.25C168.5 827.917 157.167 830.25 144 830.25H89V800.75H142C150.833 800.75 157.667 798.333 162.5 793.5C167.5 788.5 170 782 170 774C170 766 167.5 759.583 162.5 754.75C157.667 749.917 150.833 747.5 142 747.5H97V898H58.5ZM228.969 898V770.5H265.719V800.5H266.469V898H228.969ZM266.469 831.5L263.219 801.25C266.219 790.417 271.135 782.167 277.969 776.5C284.802 770.833 293.302 768 303.469 768C306.635 768 308.969 768.333 310.469 769V804C309.635 803.667 308.469 803.5 306.969 803.5C305.469 803.333 303.635 803.25 301.469 803.25C289.469 803.25 280.635 805.417 274.969 809.75C269.302 813.917 266.469 821.167 266.469 831.5ZM326.625 898V770.5H364.125V898H326.625ZM325.375 753.5V713H365.375V753.5H325.375ZM451.27 900.5C437.936 900.5 426.186 897.667 416.02 892C405.853 886.333 397.853 878.5 392.02 868.5C386.353 858.5 383.52 847.083 383.52 834.25C383.52 821.417 386.353 810 392.02 800C397.853 790 405.853 782.167 416.02 776.5C426.186 770.833 437.936 768 451.27 768C462.436 768 472.436 770.083 481.27 774.25C490.27 778.25 497.603 783.833 503.27 791C509.103 798.167 512.853 806.583 514.52 816.25H478.27C476.436 810.083 473.103 805.417 468.27 802.25C463.603 799.083 458.103 797.5 451.77 797.5C445.77 797.5 440.52 799 436.02 802C431.686 805 428.353 809.25 426.02 814.75C423.686 820.25 422.52 826.75 422.52 834.25C422.52 841.75 423.686 848.25 426.02 853.75C428.353 859.25 431.686 863.5 436.02 866.5C440.52 869.5 445.77 871 451.77 871C458.103 871 463.603 869.417 468.27 866.25C473.103 863.083 476.436 858.417 478.27 852.25H514.52C512.853 861.917 509.103 870.333 503.27 877.5C497.603 884.667 490.27 890.333 481.27 894.5C472.436 898.5 462.436 900.5 451.27 900.5ZM593.168 900.5C579.001 900.5 566.668 897.75 556.168 892.25C545.668 886.583 537.501 878.75 531.668 868.75C526.001 858.75 523.168 847.25 523.168 834.25C523.168 821.083 526.001 809.583 531.668 799.75C537.501 789.75 545.585 782 555.918 776.5C566.251 770.833 578.251 768 591.918 768C605.085 768 616.501 770.667 626.168 776C635.835 781.333 643.335 788.75 648.668 798.25C654.001 807.75 656.668 818.917 656.668 831.75C656.668 834.417 656.585 836.917 656.418 839.25C656.251 841.417 656.001 843.5 655.668 845.5H545.168V820.75H625.418L618.918 825.25C618.918 814.917 616.418 807.333 611.418 802.5C606.585 797.5 599.918 795 591.418 795C581.585 795 573.918 798.333 568.418 805C563.085 811.667 560.418 821.667 560.418 835C560.418 848 563.085 857.667 568.418 864C573.918 870.333 582.085 873.5 592.918 873.5C598.918 873.5 604.085 872.5 608.418 870.5C612.751 868.5 616.001 865.25 618.168 860.75H653.418C649.251 873.083 642.085 882.833 631.918 890C621.918 897 609.001 900.5 593.168 900.5ZM110.75 1203V1052.5H52V1023H208V1052.5H149.25V1203H110.75ZM201.869 1203V1075.5H238.619V1105.5H239.369V1203H201.869ZM239.369 1136.5L236.119 1106.25C239.119 1095.42 244.036 1087.17 250.869 1081.5C257.702 1075.83 266.202 1073 276.369 1073C279.536 1073 281.869 1073.33 283.369 1074V1109C282.536 1108.67 281.369 1108.5 279.869 1108.5C278.369 1108.33 276.536 1108.25 274.369 1108.25C262.369 1108.25 253.536 1110.42 247.869 1114.75C242.202 1118.92 239.369 1126.17 239.369 1136.5ZM377.09 1203C376.09 1199.33 375.34 1195.42 374.84 1191.25C374.507 1187.08 374.34 1182.25 374.34 1176.75H373.34V1116.5C373.34 1111.33 371.59 1107.33 368.09 1104.5C364.757 1101.5 359.757 1100 353.09 1100C346.757 1100 341.673 1101.08 337.84 1103.25C334.173 1105.42 331.757 1108.58 330.59 1112.75H294.84C296.507 1101.25 302.423 1091.75 312.59 1084.25C322.757 1076.75 336.673 1073 354.34 1073C372.673 1073 386.673 1077.08 396.34 1085.25C406.007 1093.42 410.84 1105.17 410.84 1120.5V1176.75C410.84 1180.92 411.09 1185.17 411.59 1189.5C412.257 1193.67 413.257 1198.17 414.59 1203H377.09ZM332.59 1205.5C319.923 1205.5 309.84 1202.33 302.34 1196C294.84 1189.5 291.09 1180.92 291.09 1170.25C291.09 1158.42 295.507 1148.92 304.34 1141.75C313.34 1134.42 325.84 1129.67 341.84 1127.5L379.09 1122.25V1144L348.09 1148.75C341.423 1149.75 336.507 1151.58 333.34 1154.25C330.173 1156.92 328.59 1160.58 328.59 1165.25C328.59 1169.42 330.09 1172.58 333.09 1174.75C336.09 1176.92 340.09 1178 345.09 1178C352.923 1178 359.59 1175.92 365.09 1171.75C370.59 1167.42 373.34 1162.42 373.34 1156.75L376.84 1176.75C373.173 1186.25 367.59 1193.42 360.09 1198.25C352.59 1203.08 343.423 1205.5 332.59 1205.5ZM494.482 1205.5C481.149 1205.5 469.399 1202.67 459.232 1197C449.066 1191.33 441.066 1183.5 435.232 1173.5C429.566 1163.5 426.732 1152.08 426.732 1139.25C426.732 1126.42 429.566 1115 435.232 1105C441.066 1095 449.066 1087.17 459.232 1081.5C469.399 1075.83 481.149 1073 494.482 1073C505.649 1073 515.649 1075.08 524.482 1079.25C533.482 1083.25 540.816 1088.83 546.482 1096C552.316 1103.17 556.066 1111.58 557.732 1121.25H521.482C519.649 1115.08 516.316 1110.42 511.482 1107.25C506.816 1104.08 501.316 1102.5 494.982 1102.5C488.982 1102.5 483.732 1104 479.232 1107C474.899 1110 471.566 1114.25 469.232 1119.75C466.899 1125.25 465.732 1131.75 465.732 1139.25C465.732 1146.75 466.899 1153.25 469.232 1158.75C471.566 1164.25 474.899 1168.5 479.232 1171.5C483.732 1174.5 488.982 1176 494.982 1176C501.316 1176 506.816 1174.42 511.482 1171.25C516.316 1168.08 519.649 1163.42 521.482 1157.25H557.732C556.066 1166.92 552.316 1175.33 546.482 1182.5C540.816 1189.67 533.482 1195.33 524.482 1199.5C515.649 1203.5 505.649 1205.5 494.482 1205.5ZM577.113 1203V1023H614.613V1203H577.113ZM658.863 1203L605.863 1136.75L657.613 1075.5H700.863L640.113 1142.5L641.863 1130.75L703.363 1203H658.863ZM770.17 1205.5C756.003 1205.5 743.67 1202.75 733.17 1197.25C722.67 1191.58 714.503 1183.75 708.67 1173.75C703.003 1163.75 700.17 1152.25 700.17 1139.25C700.17 1126.08 703.003 1114.58 708.67 1104.75C714.503 1094.75 722.587 1087 732.92 1081.5C743.253 1075.83 755.253 1073 768.92 1073C782.087 1073 793.503 1075.67 803.17 1081C812.837 1086.33 820.337 1093.75 825.67 1103.25C831.003 1112.75 833.67 1123.92 833.67 1136.75C833.67 1139.42 833.587 1141.92 833.42 1144.25C833.253 1146.42 833.003 1148.5 832.67 1150.5H722.17V1125.75H802.42L795.92 1130.25C795.92 1119.92 793.42 1112.33 788.42 1107.5C783.587 1102.5 776.92 1100 768.42 1100C758.587 1100 750.92 1103.33 745.42 1110C740.087 1116.67 737.42 1126.67 737.42 1140C737.42 1153 740.087 1162.67 745.42 1169C750.92 1175.33 759.087 1178.5 769.92 1178.5C775.92 1178.5 781.087 1177.5 785.42 1175.5C789.753 1173.5 793.003 1170.25 795.17 1165.75H830.42C826.253 1178.08 819.087 1187.83 808.92 1195C798.92 1202 786.003 1205.5 770.17 1205.5ZM853.725 1203V1075.5H890.475V1105.5H891.225V1203H853.725ZM891.225 1136.5L887.975 1106.25C890.975 1095.42 895.891 1087.17 902.725 1081.5C909.558 1075.83 918.058 1073 928.225 1073C931.391 1073 933.725 1073.33 935.225 1074V1109C934.391 1108.67 933.225 1108.5 931.725 1108.5C930.225 1108.33 928.391 1108.25 926.225 1108.25C914.225 1108.25 905.391 1110.42 899.725 1114.75C894.058 1118.92 891.225 1126.17 891.225 1136.5ZM926.967 1203V1161.75H968.217V1203H926.967Z" fill="#02081E"/>
</svg>
