<svg width="1000" height="1000" viewBox="0 0 1000 1000" fill="none" xmlns="http://www.w3.org/2000/svg">
<rect width="1000" height="1000" fill="#E9F0F5"/>
<path d="M205.371 314.804C161.267 384.97 143.652 468.573 155.695 550.569C167.738 632.566 208.648 707.572 271.066 762.093C333.483 816.614 413.309 847.069 496.18 847.979C579.051 848.889 659.526 820.193 723.125 767.056C786.725 713.918 829.272 639.828 843.112 558.115C856.952 476.403 841.177 392.434 798.623 321.317C756.07 250.199 689.533 196.603 610.985 170.172C532.436 143.741 447.034 146.211 370.144 177.136L419.378 299.549C467.116 280.349 520.138 278.816 568.905 295.226C617.672 311.635 658.982 344.911 685.401 389.064C711.82 433.217 721.615 485.35 713.022 536.081C704.429 586.812 678.014 632.812 638.528 665.802C599.042 698.793 549.079 716.608 497.628 716.044C446.178 715.479 396.618 696.571 357.866 662.721C319.114 628.872 293.714 582.304 286.237 531.396C278.76 480.488 289.697 428.583 317.079 385.021L205.371 314.804Z" fill="#0D2B95"/>
</svg>
